<?xml version="1.0" encoding="UTF-8"?>
<!DOCTYPE svg PUBLIC "-//W3C//DTD SVG 1.1//EN" "http://www.w3.org/Graphics/SVG/1.1/DTD/svg11.dtd">
<!-- Creator: CorelDRAW -->
<svg xmlns="http://www.w3.org/2000/svg" xml:space="preserve" width="512px" height="512px" version="1.1" style="shape-rendering:geometricPrecision; text-rendering:geometricPrecision; image-rendering:optimizeQuality; fill-rule:evenodd; clip-rule:evenodd"
viewBox="0 0 512 512"
 xmlns:xlink="http://www.w3.org/1999/xlink">
 <defs>
  <style type="text/css">
   <![CDATA[
    .fil0 {fill:#4D4D4D}
    .fil1 {fill:#F3A766}
   ]]>
  </style>
 </defs>
 <g id="Layer_x0020_1">
  <metadata id="CorelCorpID_0Corel-Layer"/>
  <path class="fil0" d="M124 447l-20 -78c-5,-5 -7,-10 -7,-15 0,-5 2,-10 6,-15l0 -16c-6,9 -11,17 -13,21 -3,6 20,83 27,103l7 0zm-99 15c-10,0 -10,-15 0,-15l44 0 -20 -73c-6,-5 -8,-11 -8,-15 -1,-7 3,-12 5,-16l1 -135c-7,4 -19,10 -37,17 -4,2 -9,-1 -9,-6 -8,-57 77,-94 97,-102 7,-32 29,-55 62,-64 45,-11 80,5 101,46 29,-1 56,34 70,56 17,26 36,3 36,-22l0 -40c-12,-11 -17,-18 -14,-25 4,-10 23,-2 35,-2 2,-6 6,-8 14,-8l68 0c23,0 42,18 42,41 0,27 3,22 -34,23 -19,0 -25,31 -30,45 -5,19 -19,68 -80,96 -7,3 -17,7 -29,10l-3 174 69 0c9,0 9,15 0,15 -127,0 -253,0 -380,0zm77 -15c-1,-2 -2,-5 -3,-8 -24,-79 -27,-96 -22,-103l29 -44c17,-27 24,-38 29,-43 7,-17 6,-31 6,-49 0,-7 -3,-22 7,-22 10,0 8,14 8,21 0,17 0,33 -6,50l95 25c3,1 5,4 5,7l4 166 11 0 4 -165c-1,-5 -1,-4 2,-8 12,-48 14,-50 14,-51 6,-7 16,0 12,8 -1,3 -6,22 -11,40 23,-3 60,-15 75,-22 56,-26 66,-66 72,-84 7,-22 13,-58 43,-59l20 0 0 -8c0,-15 -12,-27 -28,-27l-67 0c-5,12 -19,7 -28,7 2,2 8,6 8,11l0 44c0,40 -37,70 -62,30 -22,-34 -45,-52 -61,-49 -5,0 -7,-2 -9,-6 -17,-37 -47,-50 -85,-40 -21,5 -47,19 -53,56 0,2 -2,4 -4,6 -1,0 -87,31 -92,77 14,-6 28,-13 32,-16 0,-6 -1,-17 8,-17 6,0 7,5 7,9 -1,54 -1,109 -2,164 0,6 -10,11 0,18 1,1 2,2 2,4l22 78 18 0zm193 0l-3 -162c-3,1 -6,1 -9,1l-4 161 16 0zm-56 0l-4 -160 -43 -12c-5,18 -21,59 -45,75l24 97 68 0zm-82 0l-25 -100c-1,-3 0,-7 4,-8 21,-10 36,-51 42,-68l-35 -9c-5,6 -16,23 -25,38l-1 42c0,8 -11,9 -2,18 1,0 2,2 2,3l23 84 17 0zm283 -351c-5,0 -12,-5 -20,-1 -8,4 -15,-7 -7,-13 7,-4 40,-5 34,9 -1,3 -4,5 -7,5zm-116 182c-6,2 -12,3 -18,4l3 165 12 0 3 -169z"/>
  <path class="fil1" d="M150 249l95 25c3,1 5,4 5,7l4 166 11 0 4 -165c-1,-5 -1,-4 2,-8 12,-48 14,-50 14,-51 6,-7 16,0 12,8 -1,3 -6,22 -11,40 23,-3 60,-15 75,-22 56,-26 66,-66 72,-84 7,-22 13,-58 43,-59l20 0 0 -8c0,-15 -12,-27 -28,-27l-67 0c-5,12 -19,7 -28,7 2,2 8,6 8,11l0 44c0,40 -37,70 -62,30 -22,-34 -45,-52 -61,-49 -5,0 -7,-2 -9,-6 -17,-37 -47,-50 -85,-40 -21,5 -47,19 -53,56 0,2 -2,4 -4,6 -1,0 -87,31 -92,77 14,-6 28,-13 32,-16 0,-6 -1,-17 8,-17 6,0 7,5 7,9 -1,54 -1,109 -2,164 0,6 -10,11 0,18 1,1 2,2 2,4l22 78 18 0 -3 -8c-24,-79 -27,-96 -22,-103l29 -44c17,-27 24,-38 29,-43 7,-17 6,-31 6,-49 0,-7 -3,-22 7,-22 10,0 8,14 8,21 0,17 0,33 -6,50zm290 -153c-5,0 -12,-5 -20,-1 -8,4 -15,-7 -7,-13 7,-4 40,-5 34,9 -1,3 -4,5 -7,5z"/>
  <path class="fil1" d="M306 282l3 165 12 0 3 -169c-6,2 -12,3 -18,4z"/>
  <path class="fil1" d="M136 339c21,-10 36,-51 42,-68l-35 -9c-5,6 -16,23 -25,38l-1 42c0,8 -11,9 -2,18 1,0 2,2 2,3l23 84 17 0 -25 -100c-1,-3 0,-7 4,-8z"/>
 </g>
</svg>
